<svg width="492" height="362" viewBox="0 0 492 362" fill="none" xmlns="http://www.w3.org/2000/svg">
<g clip-path="url(#clip0_5_2)">
<path d="M253.537 132.5C253.537 151.682 209.171 196.361 154.454 196.361C99.7362 196.361 55.3701 157.168 55.3701 132.5C55.3701 113.26 253.537 113.26 253.537 132.5Z" fill="#E1E8ED"/>
<path d="M253.537 132.5H55.3701C55.3701 113.266 99.7362 68.6389 154.454 68.6389C209.171 68.6389 253.537 113.26 253.537 132.5Z" fill="#292F33"/>
<path d="M246.326 132.5C246.326 149.359 205.182 188.622 154.448 188.622C103.713 188.622 62.5748 154.166 62.5748 132.5C62.5748 115.594 103.707 76.3835 154.448 76.3835C205.182 76.3777 246.326 115.594 246.326 132.5Z" fill="#F5F8FA"/>
<path d="M154.5 181.603C181.619 181.603 203.603 159.619 203.603 132.5C203.603 105.381 181.619 83.3966 154.5 83.3966C127.381 83.3966 105.397 105.381 105.397 132.5C105.397 159.619 127.381 181.603 154.5 181.603Z" fill="#1464AE"/>
<path d="M154.5 159.833C169.595 159.833 181.833 147.595 181.833 132.5C181.833 117.405 169.595 105.167 154.5 105.167C139.405 105.167 127.167 117.405 127.167 132.5C127.167 147.595 139.405 159.833 154.5 159.833Z" fill="#292F33"/>
<path d="M136.985 126.694C143.397 126.694 148.596 121.496 148.596 115.083C148.596 108.671 143.397 103.472 136.985 103.472C130.572 103.472 125.374 108.671 125.374 115.083C125.374 121.496 130.572 126.694 136.985 126.694Z" fill="#F5F8FA"/>
<path d="M173 185H149C145.817 185 142.765 185.799 140.515 187.223C138.264 188.646 137 190.576 137 192.588V276H185V192.588C185 190.576 183.736 188.646 181.485 187.223C179.235 185.799 176.183 185 173 185Z" fill="#008170"/>
<path d="M119 208L95 208C91.8174 208 88.7652 209.196 86.5147 211.324C84.2643 213.452 83 216.339 83 219.348L83 276L131 276L131 219.348C131 216.339 129.736 213.452 127.485 211.324C125.235 209.196 122.183 208 119 208Z" fill="#008170"/>
<path d="M227 148H203C199.817 148 196.765 148.75 194.515 150.084C192.264 151.418 191 153.227 191 155.114V276H239V155.114C239 153.227 237.736 151.418 235.485 150.084C233.235 148.75 230.183 148 227 148Z" fill="#008170"/>
<path d="M130.456 34.6186C198.713 16.3293 263.895 53.9622 282.184 122.219C300.474 190.476 259.829 260.925 191.572 279.214C123.316 297.503 58.1334 259.87 39.844 191.613C21.5547 123.357 62.1991 52.908 130.456 34.6186ZM32.4157 75.9991C-17.1239 161.804 42.583 251.764 76.2589 271.672C138.569 308.49 237.656 312.419 287.741 225.62C334.134 145.265 289.837 71.0037 232.037 33.8252C193.662 9.1692 81.9301 -9.76237 32.4157 75.9991Z" fill="#1C1C1C"/>
<path d="M381.823 255.435L360.901 291.926L275.191 241.919C275.191 241.919 266.544 232.479 274.801 218.178C283.057 203.877 296.114 205.428 296.114 205.428L381.823 255.435Z" fill="white"/>
<path d="M330.228 218.032C325.513 215.978 310.099 212.369 299.222 231.057C288.379 249.736 297.511 259.747 301.586 263.262C301.586 263.262 437.774 351.598 443.844 355.132C452.782 360.292 465.646 350.396 475.464 333.392C485.281 316.387 488.272 301.692 478.68 296.154C470.875 291.648 334.943 220.085 330.228 218.032Z" fill="#1C1C1C"/>
<path d="M113.985 24.1793C182.242 5.88994 252.656 46.5436 270.946 114.8C289.235 183.057 248.582 253.471 180.325 271.761C112.068 290.05 41.6537 249.397 23.3643 181.14C5.07495 112.883 45.7286 42.4687 113.985 24.1793ZM110.337 10.5623C34.4806 30.8879 -10.5531 108.889 9.77251 184.745C30.0981 260.601 108.099 305.635 183.955 285.309C259.811 264.983 304.854 187.017 284.519 111.127C264.184 35.236 186.193 -9.7633 110.337 10.5623Z" fill="white"/>
<path d="M475.486 333.397C484.579 317.647 487.036 302.042 480.974 298.542C474.913 295.043 462.627 304.974 453.534 320.724C444.442 336.474 441.984 352.079 448.046 355.578C454.107 359.078 466.393 349.147 475.486 333.397Z" fill="#424242"/>
</g>
<defs>
<clipPath id="clip0_5_2">
<rect width="492" height="362" fill="white"/>
</clipPath>
</defs>
</svg>
